# Blender v2.93.0 OBJ File: 'translation_gizmo.blend'
# www.blender.org
mtllib arrow.mtl
o arrow
v 0.000000 0.000000 -0.008576
v 0.000000 0.827421 -0.008576
v 0.003282 0.000000 -0.007923
v 0.003282 0.827421 -0.007923
v 0.006064 0.000000 -0.006064
v 0.006064 0.827421 -0.006064
v 0.007923 0.000000 -0.003282
v 0.007923 0.827421 -0.003282
v 0.008576 0.000000 0.000000
v 0.008576 0.827421 0.000000
v 0.007923 0.000000 0.003282
v 0.007923 0.827421 0.003282
v 0.006064 0.000000 0.006064
v 0.006064 0.827421 0.006064
v 0.003282 0.000000 0.007923
v 0.003282 0.827421 0.007923
v -0.000000 0.000000 0.008576
v 0.000000 0.827421 0.008576
v -0.003282 0.000000 0.007923
v -0.003282 0.827421 0.007923
v -0.006064 0.000000 0.006064
v -0.006064 0.827421 0.006064
v -0.007923 0.000000 0.003282
v -0.007923 0.827421 0.003282
v -0.008576 0.000000 0.000000
v -0.008576 0.827421 0.000000
v -0.007923 0.000000 -0.003282
v -0.007923 0.827421 -0.003282
v -0.006064 0.000000 -0.006064
v -0.006064 0.827421 -0.006064
v -0.003282 0.000000 -0.007923
v -0.003282 0.827421 -0.007923
v 0.016002 0.827421 -0.038632
v 0.000000 0.827421 -0.041816
v 0.029568 0.827421 -0.029568
v 0.038632 0.827421 -0.016002
v 0.041816 0.827421 0.000000
v 0.038633 0.827421 0.016002
v 0.029568 0.827421 0.029568
v 0.016002 0.827421 0.038632
v -0.000000 0.827421 0.041816
v -0.016002 0.827421 0.038632
v -0.029568 0.827421 0.029568
v -0.038632 0.827421 0.016002
v -0.041816 0.827421 0.000000
v -0.038632 0.827421 -0.016002
v -0.029568 0.827421 -0.029568
v -0.016002 0.827421 -0.038632
v 0.000000 0.999809 0.000000
vt 0.039680 0.819870
vt 0.039680 0.763722
vt 0.014978 0.763722
vt 0.014978 0.819870
vt 0.014978 0.848171
vt 0.064836 0.848171
vt 0.064836 0.820323
vt 0.014978 0.820323
vt 0.064836 0.819870
vt 0.064836 0.763722
vt 0.040134 0.763722
vt 0.040134 0.819870
vt 0.014978 0.876471
vt 0.064836 0.876471
vt 0.064836 0.848624
vt 0.014978 0.848624
vt 0.089992 0.819870
vt 0.089992 0.763722
vt 0.065290 0.763722
vt 0.065290 0.819870
vt 0.065290 0.848171
vt 0.115148 0.848171
vt 0.115148 0.820323
vt 0.065290 0.820323
vt 0.115148 0.819870
vt 0.115148 0.763722
vt 0.090446 0.763722
vt 0.090446 0.819870
vt 0.065290 0.876471
vt 0.115148 0.876471
vt 0.115148 0.848624
vt 0.065290 0.848624
vt 0.140304 0.819870
vt 0.140304 0.763722
vt 0.115602 0.763722
vt 0.115602 0.819870
vt 0.014978 0.904772
vt 0.064836 0.904772
vt 0.064836 0.876924
vt 0.014978 0.876924
vt 0.140304 0.876471
vt 0.140304 0.820323
vt 0.115602 0.820323
vt 0.115602 0.876471
vt 0.065290 0.904772
vt 0.115148 0.904772
vt 0.115148 0.876924
vt 0.065290 0.876924
vt 0.165460 0.819870
vt 0.165460 0.763722
vt 0.140758 0.763722
vt 0.140758 0.819870
vt 0.014978 0.933072
vt 0.064836 0.933072
vt 0.064836 0.905225
vt 0.014978 0.905225
vt 0.215772 0.961826
vt 0.191070 0.961826
vt 0.191070 0.989673
vt 0.215772 0.989673
vt 0.140304 0.933072
vt 0.140304 0.876924
vt 0.115602 0.876924
vt 0.115602 0.933072
vt 0.065290 0.933072
vt 0.115148 0.933072
vt 0.115148 0.905225
vt 0.065290 0.905225
vt 0.167794 0.983637
vt 0.165914 0.978519
vt 0.165914 0.972980
vt 0.167794 0.967862
vt 0.171268 0.963946
vt 0.175808 0.961826
vt 0.180722 0.961826
vt 0.185261 0.963946
vt 0.188736 0.967862
vt 0.190616 0.972980
vt 0.190616 0.978519
vt 0.188736 0.983637
vt 0.185261 0.987553
vt 0.180722 0.989673
vt 0.175808 0.989673
vt 0.171268 0.987553
vt 0.215772 0.933525
vt 0.191070 0.933525
vt 0.191070 0.961373
vt 0.215772 0.961373
vt 0.215772 0.905225
vt 0.191070 0.905225
vt 0.191070 0.933072
vt 0.215772 0.933072
vt 0.240928 0.763722
vt 0.216226 0.763722
vt 0.216226 0.791569
vt 0.240928 0.791569
vt 0.165460 0.961826
vt 0.140758 0.961826
vt 0.140758 0.989673
vt 0.165460 0.989673
vt 0.140304 0.961826
vt 0.115602 0.961826
vt 0.115602 0.989673
vt 0.140304 0.989673
vt 0.215772 0.876924
vt 0.191070 0.876924
vt 0.191070 0.904772
vt 0.215772 0.904772
vt 0.190616 0.876924
vt 0.165914 0.876924
vt 0.165914 0.904772
vt 0.190616 0.904772
vt 0.190616 0.905225
vt 0.165914 0.905225
vt 0.165914 0.933072
vt 0.190616 0.933072
vt 0.190616 0.933525
vt 0.165914 0.933525
vt 0.165914 0.961373
vt 0.190616 0.961373
vt 0.215772 0.763722
vt 0.191070 0.763722
vt 0.191070 0.791569
vt 0.215772 0.791569
vt 0.215772 0.792023
vt 0.191070 0.792023
vt 0.191070 0.819870
vt 0.215772 0.819870
vt 0.215772 0.820323
vt 0.191070 0.820323
vt 0.191070 0.848171
vt 0.215772 0.848171
vt 0.089992 0.961826
vt 0.065290 0.961826
vt 0.065290 0.989673
vt 0.089992 0.989673
vt 0.115148 0.961826
vt 0.090446 0.961826
vt 0.090446 0.989673
vt 0.115148 0.989673
vt 0.215772 0.848624
vt 0.191070 0.848624
vt 0.191070 0.876471
vt 0.215772 0.876471
vt 0.190616 0.819870
vt 0.166140 0.819870
vt 0.190616 0.763949
vt 0.115148 0.933752
vt 0.115148 0.961373
vt 0.065516 0.961373
vt 0.064836 0.933752
vt 0.064836 0.961373
vt 0.015204 0.961373
vt 0.140984 0.876471
vt 0.165460 0.876471
vt 0.165460 0.820550
vt 0.165460 0.961373
vt 0.165460 0.933752
vt 0.115828 0.961373
vt 0.166140 0.876471
vt 0.190616 0.876471
vt 0.190616 0.820550
vt 0.115602 0.961146
vt 0.115602 0.933525
vt 0.165234 0.933525
vt 0.165234 0.820323
vt 0.140758 0.820323
vt 0.140758 0.876244
vt 0.014978 0.961146
vt 0.014978 0.933525
vt 0.064610 0.933525
vt 0.140984 0.933072
vt 0.165460 0.933072
vt 0.165460 0.877151
vt 0.140758 0.876924
vt 0.165234 0.876924
vt 0.140758 0.932845
vt 0.065290 0.961146
vt 0.065290 0.933525
vt 0.114922 0.933525
vt 0.064836 0.962052
vt 0.064836 0.989673
vt 0.015204 0.989673
vt 0.165914 0.763722
vt 0.190390 0.763722
vt 0.165914 0.819643
vt 0.014978 0.989446
vt 0.014978 0.961826
vt 0.064610 0.961826
vt 0.190390 0.820323
vt 0.165914 0.820323
vt 0.165914 0.876244
vn 0.1951 -0.0000 -0.9808
vn 0.5556 -0.0000 -0.8315
vn 0.8315 -0.0000 -0.5556
vn 0.9808 0.0000 -0.1951
vn 0.9808 0.0000 0.1951
vn 0.8315 -0.0000 0.5556
vn 0.5556 -0.0000 0.8315
vn 0.1951 -0.0000 0.9808
vn -0.1951 0.0000 0.9808
vn -0.5556 0.0000 0.8315
vn -0.8315 0.0000 0.5556
vn -0.9808 0.0000 0.1951
vn -0.9808 0.0000 -0.1951
vn -0.8315 0.0000 -0.5556
vn -0.0000 -1.0000 -0.0000
vn -0.5556 0.0000 -0.8315
vn -0.1951 0.0000 -0.9808
vn 0.1898 0.2314 -0.9542
vn -0.1898 0.2314 -0.9542
vn -0.5405 0.2314 -0.8089
vn -0.8089 0.2314 -0.5405
vn -0.9542 0.2314 -0.1898
vn -0.9542 0.2314 0.1898
vn -0.8089 0.2314 0.5405
vn -0.5405 0.2314 0.8089
vn -0.1898 0.2314 0.9542
vn 0.1898 0.2314 0.9542
vn 0.5405 0.2314 0.8089
vn 0.8089 0.2314 0.5405
vn 0.9542 0.2314 0.1898
vn 0.9542 0.2314 -0.1898
vn 0.8089 0.2314 -0.5405
vn 0.5405 0.2314 -0.8089
usemtl gizmos
s off
f 1/1/1 2/2/1 4/3/1 3/4/1
f 3/5/2 4/6/2 6/7/2 5/8/2
f 5/9/3 6/10/3 8/11/3 7/12/3
f 7/13/4 8/14/4 10/15/4 9/16/4
f 9/17/5 10/18/5 12/19/5 11/20/5
f 11/21/6 12/22/6 14/23/6 13/24/6
f 13/25/7 14/26/7 16/27/7 15/28/7
f 15/29/8 16/30/8 18/31/8 17/32/8
f 17/33/9 18/34/9 20/35/9 19/36/9
f 19/37/10 20/38/10 22/39/10 21/40/10
f 21/41/11 22/42/11 24/43/11 23/44/11
f 23/45/12 24/46/12 26/47/12 25/48/12
f 25/49/13 26/50/13 28/51/13 27/52/13
f 27/53/14 28/54/14 30/55/14 29/56/14
f 30/57/15 28/58/15 46/59/15 47/60/15
f 29/61/16 30/62/16 32/63/16 31/64/16
f 31/65/17 32/66/17 2/67/17 1/68/17
f 1/69/15 3/70/15 5/71/15 7/72/15 9/73/15 11/74/15 13/75/15 15/76/15 17/77/15 19/78/15 21/79/15 23/80/15 25/81/15 27/82/15 29/83/15 31/84/15
f 6/85/15 4/86/15 33/87/15 35/88/15
f 16/89/15 14/90/15 39/91/15 40/92/15
f 26/93/15 24/94/15 44/95/15 45/96/15
f 12/97/15 10/98/15 37/99/15 38/100/15
f 22/101/15 20/102/15 42/103/15 43/104/15
f 32/105/15 30/106/15 47/107/15 48/108/15
f 8/109/15 6/110/15 35/111/15 36/112/15
f 18/113/15 16/114/15 40/115/15 41/116/15
f 4/117/15 2/118/15 34/119/15 33/120/15
f 28/121/15 26/122/15 45/123/15 46/124/15
f 14/125/15 12/126/15 38/127/15 39/128/15
f 24/129/15 22/130/15 43/131/15 44/132/15
f 2/133/15 32/134/15 48/135/15 34/136/15
f 10/137/15 8/138/15 36/139/15 37/140/15
f 20/141/15 18/142/15 41/143/15 42/144/15
f 33/145/18 34/146/18 49/147/18
f 34/148/19 48/149/19 49/150/19
f 48/151/20 47/152/20 49/153/20
f 47/154/21 46/155/21 49/156/21
f 46/157/22 45/158/22 49/159/22
f 45/160/23 44/161/23 49/162/23
f 44/163/24 43/164/24 49/165/24
f 43/166/25 42/167/25 49/168/25
f 42/169/26 41/170/26 49/171/26
f 41/172/27 40/173/27 49/174/27
f 40/175/28 39/176/28 49/177/28
f 39/178/29 38/179/29 49/180/29
f 38/181/30 37/182/30 49/183/30
f 37/184/31 36/185/31 49/186/31
f 36/187/32 35/188/32 49/189/32
f 35/190/33 33/191/33 49/192/33
